# xmcd CD database file
#
# Track frame offsets:
#	150
#	19484
#	39173
#	61349
#	78200
#	100314
#
# Disc length: 1454 seconds
#
# Revision: 0
# Processed by: cddbd v1.5.1PL0 Copyright (c) Steve Scherf et al.
# Submitted via: CDex 1.50beta10
#
DISCID=4005ac06
DTITLE=FMM(future mad maximum) - Maximum Powered - RAY FORCE (preview)
DYEAR=2005
DGENRE=Game
TTITLE0=PENETRATION (FM SIDE)
TTITLE1=G (FM SIDE)
TTITLE2=VISION (FM SIDE)
TTITLE3=CRACKING! (FM SIDE)
TTITLE4=MOBIUS (FM SIDE)
TTITLE5=Q.E.P.D (ARRANGE SIDE)
EXTD=YEAR: 2005
EXTT0=
EXTT1=
EXTT2=
EXTT3=
EXTT4=
EXTT5=
PLAYORDER=
